# xmcd CD database file
#
# Track frame offsets:
#	150
#	22991
#	40291
#	63772
#	90615
#	110436
#	124749
#	146611
#	180395
#	204053
#
# Disc length: 3037 seconds
#
# Revision: 0
# Processed by: cddbd v1.5.1PL0 Copyright (c) Steve Scherf et al.
# Submitted via: CDex 1.51
#
DISCID=790bdb0a
DTITLE=Israel Jernigan - Going Deeper
DYEAR=2004
DGENRE=Worship
TTITLE0=My Heart Cries
TTITLE1=Take Me There
TTITLE2=In The Evening
TTITLE3=I Am Yours
TTITLE4=You Cried For Me
TTITLE5=It Burns
TTITLE6=Sacrifice
TTITLE7=Going Deeper
TTITLE8=Cover Me
TTITLE9=His Death For Me
EXTD=YEAR: 2004
EXTT0=
EXTT1=
EXTT2=
EXTT3=
EXTT4=
EXTT5=
EXTT6=
EXTT7=
EXTT8=
EXTT9=
PLAYORDER=
